<svg id="Layer_1" data-name="Layer 1" xmlns="http://www.w3.org/2000/svg" viewBox="0 0 128 128"><defs><style>.cls-1{fill:#2d3e50;}.cls-2{fill:#1d75b8;}</style></defs><title>b</title><path class="cls-1" d="M36.0351,23.01915a10.9386,10.9386,0,0,0,21.47763,0l1.67375-8.60594A11.526,11.526,0,0,0,47.7663,1.33416H45.78153A11.526,11.526,0,0,0,34.36135,14.41322Z" id="id_110"></path><path class="cls-1" d="M26.50625,85.889a4.77482,4.77482,0,0,0,.88777-.49715v13.964L44.47909,80.74505a1.87926,1.87926,0,0,1,2.305-.36754L66.09011,91.22419V85.39181a4.70019,4.70019,0,0,0,6.9421-1.74884l9.33894-18.49145a5.04979,5.04979,0,0,0-.05327-4.66052l-.31072-.57705L79.2197,54.75627,72.38421,42.10608a6.837,6.837,0,0,0-1.05645-1.47363,4.08332,4.08332,0,0,0-2.166-1.18074c-2.8141-.577-10.56407-2.166-12.38386-2.4146a2.49048,2.49048,0,0,0-.96767.071l-.25745-.08878L50.546,42.02618l-2.68981,2.68988-.8877.8877-.19538-.19531v-.06214l-.03544.02663-.02671-.02663v.06214l-.19524.19531-3.57758-3.57758-5.00675-5.00683-.25753.08878a2.49,2.49,0,0,0-.9676-.071c-1.81979.24858-9.56976,1.83762-12.39274,2.4146a4.0908,4.0908,0,0,0-2.15714,1.18074A6.83416,6.83416,0,0,0,21.1,42.10608L14.25556,54.75627,11.477,59.91394l-.31072.57705a5.04979,5.04979,0,0,0-.05327,4.66052L20.443,83.643A4.76,4.76,0,0,0,26.50625,85.889ZM66.09011,56.8779,71.168,63.62469,66.09011,75.751Zm-38.69609,0V75.751L22.31618,63.62469Z" id="id_111"></path><path class="cls-2" d="M116.80954,66.58409,95.03784,68.4553a.57217.57217,0,0,0-.34357.98632l5.49207,5.17972L98.96728,75.8657l-.8135.83014-4.12941,4.28684q-2.38667,2.51551-4.75433,5.043-1.6962,1.81783-3.37317,3.657Q81.882,94.077,77.96971,98.57126c-1.29778,1.50293-2.59075,3.013-3.86463,4.53971-.33869.40556-.67271.81586-1.009,1.2238l-1.36214-.76585L50.48111,91.62221l-3.39226-1.90605L44.658,92.36409l-3.04159,3.31354L17.67031,121.76119l5.02872,4.90466,25.9094-25.00291h.00244l15.16725,9.86665L71.5335,116.575l2.81254,1.8297.64408.4174,3.65948-3.206q2.24718-1.97175,4.42511-4.00771c1.45758-1.355,2.8937-2.72665,4.325-4.10314q4.28684-4.14014,8.44725-8.39472c2.78628-2.8269,5.52011-5.70388,8.24683-8.58559l4.05779-4.356.54864-.59873,1.43479-1.56581,5.24386,4.94564a.57216.57216,0,0,0,.964-.38722L117.43,67.18319A.57222.57222,0,0,0,116.80954,66.58409Z" id="id_112"></path></svg>